<svg width="196" height="56" viewBox="0 0 196 56" fill="none" xmlns="http://www.w3.org/2000/svg">
<rect width="196" height="56" rx="8" fill="url(#paint0_linear_1_50)"/>
<rect x="1.05" y="1.05" width="193.9" height="53.9" rx="6.95" stroke="white" stroke-opacity="0.15" stroke-width="2.1"/>
<g filter="url(#filter0_d_1_50)">
<path d="M44.3893 20.8056L24.2894 42.6028H16.917C16.4051 42.6028 15.9955 42.094 16.0979 41.5852L21.0128 10.6498C21.1152 9.93745 21.7295 9.42865 22.4463 9.42865H34.9384C43.5395 9.73393 45.8945 14.1097 44.3586 20.8259L44.3893 20.8056Z" fill="#0045D9"/>
<path d="M44.7169 18.7908C47.7887 20.4189 48.5055 23.4718 47.4815 27.5422C46.1504 33.5461 42.1571 36.0902 36.3206 36.1919L34.6823 36.2937C34.0679 36.2937 33.6584 36.7007 33.556 37.3113L32.2248 45.3504C32.1224 46.0628 31.5081 46.5716 30.7913 46.5716H24.6477C24.1357 46.5716 23.7261 46.0628 23.8285 45.554L26.0812 31.0021C26.1836 30.4933 44.7169 18.7908 44.7169 18.7908Z" fill="#00A4EE"/>
<path d="M25.9584 31.7143L28.0063 18.7906C28.0735 18.4846 28.2403 18.209 28.4809 18.0067C28.7216 17.8043 29.0226 17.6864 29.3374 17.6713H39.1672C41.5223 17.6713 43.263 18.0783 44.6965 18.7906C44.1845 23.2681 42.0343 30.4932 31.5901 30.6967H27.0848C26.5728 30.6967 26.0608 31.1037 25.9584 31.7143Z" fill="#002788"/>
</g>
<g filter="url(#filter1_d_1_50)">
<path d="M67.625 15.9204C67.5644 15.3826 67.3144 14.9659 66.875 14.6704C66.4356 14.3712 65.8826 14.2216 65.2159 14.2216C64.7386 14.2216 64.3257 14.2973 63.9773 14.4489C63.6288 14.5966 63.3579 14.8011 63.1648 15.0625C62.9754 15.3201 62.8807 15.6136 62.8807 15.9432C62.8807 16.2197 62.9451 16.4583 63.0738 16.6591C63.2064 16.8598 63.3788 17.0284 63.5909 17.1648C63.8068 17.2973 64.0379 17.4091 64.2841 17.5C64.5303 17.5871 64.767 17.6591 64.9943 17.7159L66.1307 18.0114C66.5019 18.1023 66.8826 18.2254 67.2727 18.3807C67.6629 18.536 68.0246 18.7405 68.3579 18.9943C68.6913 19.2481 68.9602 19.5625 69.1648 19.9375C69.3731 20.3125 69.4773 20.7614 69.4773 21.2841C69.4773 21.9432 69.3068 22.5284 68.9659 23.0398C68.6288 23.5511 68.1382 23.9545 67.4943 24.25C66.8541 24.5454 66.0795 24.6932 65.1704 24.6932C64.2992 24.6932 63.5454 24.5549 62.9091 24.2784C62.2727 24.0019 61.7746 23.6098 61.4148 23.1023C61.0549 22.5909 60.856 21.9848 60.8182 21.2841H62.5795C62.6136 21.7045 62.75 22.0549 62.9886 22.3352C63.231 22.6117 63.5398 22.8182 63.9148 22.9545C64.2935 23.0871 64.7083 23.1534 65.1591 23.1534C65.6553 23.1534 66.0966 23.0758 66.4829 22.9204C66.8731 22.7614 67.1799 22.5417 67.4034 22.2614C67.6269 21.9773 67.7386 21.6458 67.7386 21.267C67.7386 20.9223 67.6401 20.6401 67.4432 20.4204C67.25 20.2008 66.9867 20.0189 66.6534 19.875C66.3238 19.7311 65.9507 19.6042 65.5341 19.4943L64.1591 19.1193C63.2273 18.8655 62.4886 18.4924 61.9432 18C61.4015 17.5076 61.1307 16.8561 61.1307 16.0454C61.1307 15.375 61.3125 14.7898 61.6761 14.2898C62.0398 13.7898 62.5322 13.4015 63.1534 13.125C63.7746 12.8447 64.4754 12.7045 65.2557 12.7045C66.0435 12.7045 66.7386 12.8428 67.3409 13.1193C67.947 13.3958 68.4242 13.7765 68.7727 14.2614C69.1212 14.7424 69.303 15.2954 69.3182 15.9204H67.625ZM76.9673 20.8807V15.7727H78.6719V24.5H77.0014V22.9886H76.9105C76.7097 23.4545 76.3878 23.8428 75.9446 24.1534C75.5052 24.4602 74.9578 24.6136 74.3025 24.6136C73.7419 24.6136 73.2457 24.4905 72.8139 24.2443C72.3859 23.9943 72.0488 23.625 71.8025 23.1364C71.5601 22.6477 71.4389 22.0436 71.4389 21.3239V15.7727H73.1378V21.1193C73.1378 21.714 73.3025 22.1875 73.6321 22.5398C73.9616 22.892 74.3897 23.0682 74.9162 23.0682C75.2344 23.0682 75.5506 22.9886 75.865 22.8295C76.1832 22.6704 76.4465 22.4299 76.6548 22.1079C76.8669 21.786 76.9711 21.3769 76.9673 20.8807ZM80.9545 27.7727V15.7727H82.6136V17.1875H82.7557C82.8541 17.0057 82.9962 16.7954 83.1818 16.5568C83.3674 16.3182 83.625 16.1098 83.9545 15.9318C84.2841 15.75 84.7197 15.6591 85.2613 15.6591C85.9659 15.6591 86.5947 15.8371 87.1477 16.1932C87.7007 16.5492 88.1344 17.0625 88.4488 17.7329C88.767 18.4034 88.9261 19.2102 88.9261 20.1534C88.9261 21.0966 88.7689 21.9053 88.4545 22.5795C88.1401 23.25 87.7083 23.767 87.1591 24.1307C86.6098 24.4905 85.9829 24.6704 85.2784 24.6704C84.7481 24.6704 84.3144 24.5814 83.9773 24.4034C83.6439 24.2254 83.3826 24.017 83.1932 23.7784C83.0038 23.5398 82.8579 23.3276 82.7557 23.142H82.6534V27.7727H80.9545ZM82.6193 20.1364C82.6193 20.75 82.7083 21.2879 82.8863 21.75C83.0644 22.2121 83.3219 22.5739 83.6591 22.8352C83.9962 23.0928 84.4091 23.2216 84.8977 23.2216C85.4053 23.2216 85.8295 23.0871 86.1704 22.8182C86.5113 22.5454 86.7689 22.1761 86.9432 21.7102C87.1212 21.2443 87.2102 20.7197 87.2102 20.1364C87.2102 19.5606 87.1231 19.0436 86.9488 18.5852C86.7784 18.1269 86.5208 17.7651 86.1761 17.5C85.8352 17.2348 85.4091 17.1023 84.8977 17.1023C84.4053 17.1023 83.9886 17.2292 83.6477 17.4829C83.3106 17.7367 83.0549 18.0909 82.8807 18.5454C82.7064 19 82.6193 19.5303 82.6193 20.1364ZM90.8295 27.7727V15.7727H92.4886V17.1875H92.6307C92.7291 17.0057 92.8712 16.7954 93.0568 16.5568C93.2424 16.3182 93.5 16.1098 93.8295 15.9318C94.1591 15.75 94.5947 15.6591 95.1363 15.6591C95.8409 15.6591 96.4697 15.8371 97.0227 16.1932C97.5757 16.5492 98.0094 17.0625 98.3238 17.7329C98.642 18.4034 98.8011 19.2102 98.8011 20.1534C98.8011 21.0966 98.6439 21.9053 98.3295 22.5795C98.0151 23.25 97.5833 23.767 97.0341 24.1307C96.4848 24.4905 95.8579 24.6704 95.1534 24.6704C94.6231 24.6704 94.1894 24.5814 93.8522 24.4034C93.5189 24.2254 93.2576 24.017 93.0682 23.7784C92.8788 23.5398 92.7329 23.3276 92.6307 23.142H92.5284V27.7727H90.8295ZM92.4943 20.1364C92.4943 20.75 92.5833 21.2879 92.7613 21.75C92.9394 22.2121 93.1969 22.5739 93.5341 22.8352C93.8712 23.0928 94.2841 23.2216 94.7727 23.2216C95.2803 23.2216 95.7045 23.0871 96.0454 22.8182C96.3863 22.5454 96.6439 22.1761 96.8182 21.7102C96.9962 21.2443 97.0852 20.7197 97.0852 20.1364C97.0852 19.5606 96.9981 19.0436 96.8238 18.5852C96.6534 18.1269 96.3958 17.7651 96.0511 17.5C95.7102 17.2348 95.2841 17.1023 94.7727 17.1023C94.2803 17.1023 93.8636 17.2292 93.5227 17.4829C93.1856 17.7367 92.9299 18.0909 92.7557 18.5454C92.5814 19 92.4943 19.5303 92.4943 20.1364ZM104.381 24.6761C103.562 24.6761 102.848 24.4886 102.239 24.1136C101.629 23.7386 101.155 23.214 100.818 22.5398C100.481 21.8655 100.312 21.0776 100.312 20.1761C100.312 19.2708 100.481 18.4792 100.818 17.8011C101.155 17.1231 101.629 16.5966 102.239 16.2216C102.848 15.8466 103.562 15.6591 104.381 15.6591C105.199 15.6591 105.913 15.8466 106.523 16.2216C107.133 16.5966 107.606 17.1231 107.943 17.8011C108.28 18.4792 108.449 19.2708 108.449 20.1761C108.449 21.0776 108.28 21.8655 107.943 22.5398C107.606 23.214 107.133 23.7386 106.523 24.1136C105.913 24.4886 105.199 24.6761 104.381 24.6761ZM104.386 23.25C104.917 23.25 105.356 23.1098 105.705 22.8295C106.053 22.5492 106.311 22.1761 106.477 21.7102C106.648 21.2443 106.733 20.7311 106.733 20.1704C106.733 19.6136 106.648 19.1023 106.477 18.6364C106.311 18.1667 106.053 17.7898 105.705 17.5057C105.356 17.2216 104.917 17.0795 104.386 17.0795C103.852 17.0795 103.409 17.2216 103.057 17.5057C102.708 17.7898 102.449 18.1667 102.278 18.6364C102.112 19.1023 102.028 19.6136 102.028 20.1704C102.028 20.7311 102.112 21.2443 102.278 21.7102C102.449 22.1761 102.708 22.5492 103.057 22.8295C103.409 23.1098 103.852 23.25 104.386 23.25ZM110.345 24.5V15.7727H111.987V17.1591H112.078C112.237 16.6894 112.517 16.3201 112.919 16.0511C113.324 15.7784 113.783 15.642 114.294 15.642C114.4 15.642 114.525 15.6458 114.669 15.6534C114.817 15.661 114.932 15.6704 115.016 15.6818V17.3068C114.947 17.2879 114.826 17.267 114.652 17.2443C114.478 17.2178 114.303 17.2045 114.129 17.2045C113.728 17.2045 113.37 17.2898 113.055 17.4602C112.745 17.6269 112.499 17.8598 112.317 18.1591C112.135 18.4545 112.044 18.7917 112.044 19.1704V24.5H110.345ZM121.075 15.7727V17.1364H116.308V15.7727H121.075ZM117.587 13.6818H119.285V21.9375C119.285 22.267 119.335 22.5151 119.433 22.6818C119.532 22.8447 119.659 22.9564 119.814 23.017C119.973 23.0739 120.145 23.1023 120.331 23.1023C120.467 23.1023 120.587 23.0928 120.689 23.0739C120.791 23.0549 120.871 23.0398 120.928 23.0284L121.234 24.4318C121.136 24.4697 120.996 24.5076 120.814 24.5454C120.632 24.5871 120.405 24.6098 120.132 24.6136C119.685 24.6212 119.268 24.5417 118.882 24.375C118.496 24.2083 118.183 23.9508 117.945 23.6023C117.706 23.2538 117.587 22.8163 117.587 22.2898V13.6818ZM137.433 18.6818C137.433 19.9242 137.206 20.9924 136.751 21.8864C136.297 22.7765 135.674 23.4621 134.882 23.9432C134.094 24.4204 133.198 24.6591 132.195 24.6591C131.187 24.6591 130.287 24.4204 129.496 23.9432C128.708 23.4621 128.087 22.7746 127.632 21.8807C127.178 20.9867 126.95 19.9204 126.95 18.6818C126.95 17.4394 127.178 16.3731 127.632 15.4829C128.087 14.589 128.708 13.9034 129.496 13.4261C130.287 12.9451 131.187 12.7045 132.195 12.7045C133.198 12.7045 134.094 12.9451 134.882 13.4261C135.674 13.9034 136.297 14.589 136.751 15.4829C137.206 16.3731 137.433 17.4394 137.433 18.6818ZM135.695 18.6818C135.695 17.7348 135.541 16.9375 135.234 16.2898C134.931 15.6383 134.515 15.1458 133.984 14.8125C133.458 14.4754 132.861 14.3068 132.195 14.3068C131.524 14.3068 130.926 14.4754 130.399 14.8125C129.873 15.1458 129.456 15.6383 129.149 16.2898C128.846 16.9375 128.695 17.7348 128.695 18.6818C128.695 19.6288 128.846 20.428 129.149 21.0795C129.456 21.7273 129.873 22.2197 130.399 22.5568C130.926 22.8901 131.524 23.0568 132.195 23.0568C132.861 23.0568 133.458 22.8901 133.984 22.5568C134.515 22.2197 134.931 21.7273 135.234 21.0795C135.541 20.428 135.695 19.6288 135.695 18.6818ZM145.969 15.9204C145.908 15.3826 145.658 14.9659 145.219 14.6704C144.779 14.3712 144.226 14.2216 143.56 14.2216C143.082 14.2216 142.669 14.2973 142.321 14.4489C141.972 14.5966 141.702 14.8011 141.508 15.0625C141.319 15.3201 141.224 15.6136 141.224 15.9432C141.224 16.2197 141.289 16.4583 141.418 16.6591C141.55 16.8598 141.722 17.0284 141.935 17.1648C142.151 17.2973 142.382 17.4091 142.628 17.5C142.874 17.5871 143.111 17.6591 143.338 17.7159L144.474 18.0114C144.846 18.1023 145.226 18.2254 145.616 18.3807C146.007 18.536 146.368 18.7405 146.702 18.9943C147.035 19.2481 147.304 19.5625 147.508 19.9375C147.717 20.3125 147.821 20.7614 147.821 21.2841C147.821 21.9432 147.651 22.5284 147.31 23.0398C146.972 23.5511 146.482 23.9545 145.838 24.25C145.198 24.5454 144.423 24.6932 143.514 24.6932C142.643 24.6932 141.889 24.5549 141.253 24.2784C140.616 24.0019 140.118 23.6098 139.758 23.1023C139.399 22.5909 139.2 21.9848 139.162 21.2841H140.923C140.957 21.7045 141.094 22.0549 141.332 22.3352C141.575 22.6117 141.883 22.8182 142.258 22.9545C142.637 23.0871 143.052 23.1534 143.503 23.1534C143.999 23.1534 144.44 23.0758 144.827 22.9204C145.217 22.7614 145.524 22.5417 145.747 22.2614C145.971 21.9773 146.082 21.6458 146.082 21.267C146.082 20.9223 145.984 20.6401 145.787 20.4204C145.594 20.2008 145.33 20.0189 144.997 19.875C144.668 19.7311 144.294 19.6042 143.878 19.4943L142.503 19.1193C141.571 18.8655 140.832 18.4924 140.287 18C139.745 17.5076 139.474 16.8561 139.474 16.0454C139.474 15.375 139.656 14.7898 140.02 14.2898C140.383 13.7898 140.876 13.4015 141.497 13.125C142.118 12.8447 142.819 12.7045 143.599 12.7045C144.387 12.7045 145.082 12.8428 145.685 13.1193C146.291 13.3958 146.768 13.7765 147.116 14.2614C147.465 14.7424 147.647 15.2954 147.662 15.9204H145.969ZM159.584 16.6477H157.811C157.743 16.2689 157.616 15.9356 157.43 15.6477C157.245 15.3598 157.017 15.1155 156.749 14.9148C156.48 14.714 156.178 14.5625 155.845 14.4602C155.516 14.358 155.165 14.3068 154.794 14.3068C154.124 14.3068 153.523 14.4754 152.993 14.8125C152.466 15.1496 152.05 15.6439 151.743 16.2954C151.44 16.947 151.288 17.7424 151.288 18.6818C151.288 19.6288 151.44 20.428 151.743 21.0795C152.05 21.7311 152.468 22.2235 152.999 22.5568C153.529 22.8901 154.125 23.0568 154.788 23.0568C155.156 23.0568 155.504 23.0076 155.834 22.9091C156.167 22.8068 156.468 22.6572 156.737 22.4602C157.006 22.2633 157.233 22.0227 157.419 21.7386C157.608 21.4508 157.739 21.1212 157.811 20.75L159.584 20.7557C159.489 21.3276 159.305 21.8542 159.033 22.3352C158.764 22.8125 158.417 23.2254 157.993 23.5739C157.572 23.9186 157.091 24.1856 156.55 24.375C156.008 24.5644 155.417 24.6591 154.777 24.6591C153.769 24.6591 152.872 24.4204 152.084 23.9432C151.296 23.4621 150.675 22.7746 150.22 21.8807C149.769 20.9867 149.544 19.9204 149.544 18.6818C149.544 17.4394 149.771 16.3731 150.226 15.4829C150.68 14.589 151.302 13.9034 152.089 13.4261C152.877 12.9451 153.773 12.7045 154.777 12.7045C155.394 12.7045 155.97 12.7936 156.504 12.9716C157.042 13.1458 157.525 13.4034 157.953 13.7443C158.381 14.0814 158.735 14.4943 159.016 14.9829C159.296 15.4678 159.485 16.0227 159.584 16.6477ZM169.459 24.6761C168.641 24.6761 167.927 24.4886 167.317 24.1136C166.707 23.7386 166.233 23.214 165.896 22.5398C165.559 21.8655 165.391 21.0776 165.391 20.1761C165.391 19.2708 165.559 18.4792 165.896 17.8011C166.233 17.1231 166.707 16.5966 167.317 16.2216C167.927 15.8466 168.641 15.6591 169.459 15.6591C170.277 15.6591 170.991 15.8466 171.601 16.2216C172.211 16.5966 172.684 17.1231 173.021 17.8011C173.358 18.4792 173.527 19.2708 173.527 20.1761C173.527 21.0776 173.358 21.8655 173.021 22.5398C172.684 23.214 172.211 23.7386 171.601 24.1136C170.991 24.4886 170.277 24.6761 169.459 24.6761ZM169.464 23.25C169.995 23.25 170.434 23.1098 170.783 22.8295C171.131 22.5492 171.389 22.1761 171.555 21.7102C171.726 21.2443 171.811 20.7311 171.811 20.1704C171.811 19.6136 171.726 19.1023 171.555 18.6364C171.389 18.1667 171.131 17.7898 170.783 17.5057C170.434 17.2216 169.995 17.0795 169.464 17.0795C168.93 17.0795 168.487 17.2216 168.135 17.5057C167.786 17.7898 167.527 18.1667 167.356 18.6364C167.19 19.1023 167.106 19.6136 167.106 20.1704C167.106 20.7311 167.19 21.2443 167.356 21.7102C167.527 22.1761 167.786 22.5492 168.135 22.8295C168.487 23.1098 168.93 23.25 169.464 23.25ZM177.122 19.3182V24.5H175.423V15.7727H177.054V17.1932H177.162C177.363 16.7311 177.677 16.3598 178.105 16.0795C178.537 15.7992 179.08 15.6591 179.736 15.6591C180.33 15.6591 180.851 15.7841 181.298 16.0341C181.745 16.2803 182.092 16.6477 182.338 17.1364C182.584 17.625 182.707 18.2292 182.707 18.9489V24.5H181.008V19.1534C181.008 18.5208 180.844 18.0265 180.514 17.6704C180.185 17.3106 179.732 17.1307 179.156 17.1307C178.762 17.1307 178.412 17.2159 178.105 17.3864C177.802 17.5568 177.562 17.8068 177.383 18.1364C177.209 18.4621 177.122 18.8561 177.122 19.3182Z" fill="#E8E8E8"/>
<path d="M60.9357 43.5V31.1364H66.043C66.9686 31.1364 67.7675 31.3175 68.4396 31.6797C69.1157 32.0379 69.6369 32.5389 70.0032 33.1829C70.3694 33.8228 70.5525 34.5673 70.5525 35.4165C70.5525 36.2698 70.3654 37.0163 69.9911 37.6562C69.6208 38.2921 69.0916 38.7851 68.4034 39.1353C67.7152 39.4854 66.8982 39.6605 65.9524 39.6605H62.8011V37.3061H65.397C65.8478 37.3061 66.2241 37.2276 66.5259 37.0707C66.8318 36.9137 67.0632 36.6944 67.2202 36.4126C67.3771 36.1269 67.4556 35.7949 67.4556 35.4165C67.4556 35.0342 67.3771 34.7042 67.2202 34.4265C67.0632 34.1448 66.8318 33.9274 66.5259 33.7745C66.22 33.6216 65.8437 33.5451 65.397 33.5451H63.924V43.5H60.9357ZM74.3075 43.6569C73.7159 43.6569 73.1907 43.5583 72.7319 43.3611C72.2771 43.1599 71.9169 42.8581 71.6513 42.4556C71.3897 42.0491 71.2589 41.54 71.2589 40.9283C71.2589 40.4131 71.3494 39.9784 71.5305 39.6243C71.7116 39.2701 71.9612 38.9824 72.2791 38.761C72.597 38.5396 72.9633 38.3726 73.3778 38.2599C73.7924 38.1432 74.2351 38.0647 74.7059 38.0245C75.2332 37.9762 75.6578 37.9259 75.9797 37.8736C76.3017 37.8172 76.5351 37.7387 76.68 37.6381C76.8289 37.5335 76.9034 37.3866 76.9034 37.1974V37.1672C76.9034 36.8574 76.7967 36.6179 76.5834 36.4489C76.3701 36.2798 76.0824 36.1953 75.7202 36.1953C75.3298 36.1953 75.0158 36.2798 74.7784 36.4489C74.5409 36.6179 74.39 36.8513 74.3256 37.1491L71.603 37.0525C71.6835 36.4891 71.8907 35.986 72.2248 35.5433C72.5628 35.0966 73.0257 34.7464 73.6133 34.4929C74.2049 34.2353 74.9152 34.1065 75.7443 34.1065C76.3359 34.1065 76.8813 34.177 77.3803 34.3178C77.8794 34.4547 78.314 34.6559 78.6843 34.9215C79.0545 35.1831 79.3403 35.5051 79.5415 35.8874C79.7468 36.2698 79.8494 36.7064 79.8494 37.1974V43.5H77.0724V42.2081H77C76.835 42.522 76.6237 42.7876 76.3661 43.005C76.1126 43.2223 75.8127 43.3853 75.4666 43.494C75.1245 43.6026 74.7381 43.6569 74.3075 43.6569ZM75.2191 41.7251C75.537 41.7251 75.8228 41.6607 76.0763 41.5319C76.3339 41.4032 76.5392 41.2261 76.6921 41.0007C76.845 40.7713 76.9215 40.5057 76.9215 40.2038V39.3224C76.837 39.3667 76.7344 39.4069 76.6136 39.4432C76.4969 39.4794 76.3681 39.5136 76.2273 39.5458C76.0864 39.578 75.9415 39.6062 75.7926 39.6303C75.6437 39.6545 75.5008 39.6766 75.364 39.6967C75.0863 39.741 74.8488 39.8094 74.6516 39.902C74.4584 39.9945 74.3095 40.1153 74.2049 40.2642C74.1043 40.4091 74.054 40.5821 74.054 40.7834C74.054 41.0892 74.1626 41.3227 74.38 41.4837C74.6013 41.6446 74.881 41.7251 75.2191 41.7251ZM83.1275 46.9773C82.7733 46.9773 82.4393 46.9491 82.1253 46.8927C81.8114 46.8404 81.5418 46.77 81.3164 46.6815L81.9684 44.5383C82.2581 44.6349 82.5197 44.6913 82.7532 44.7074C82.9906 44.7235 83.1939 44.6852 83.3629 44.5927C83.536 44.5041 83.6688 44.3452 83.7613 44.1158L83.876 43.8381L80.5799 34.2273H83.6708L85.3792 40.8437H85.4758L87.2084 34.2273H90.3174L86.8221 44.3874C86.653 44.8945 86.4136 45.3413 86.1037 45.7276C85.7978 46.118 85.4014 46.4239 84.9144 46.6452C84.4314 46.8666 83.8358 46.9773 83.1275 46.9773Z" fill="#0045D9"/>
<path d="M91.4494 43.5V31.1364H96.5566C97.4823 31.1364 98.2812 31.3175 98.9533 31.6797C99.6294 32.0379 100.151 32.5389 100.517 33.1829C100.883 33.8228 101.066 34.5673 101.066 35.4165C101.066 36.2698 100.879 37.0163 100.505 37.6562C100.135 38.2921 99.6053 38.7851 98.9171 39.1353C98.2288 39.4854 97.4118 39.6605 96.4661 39.6605H93.3148V37.3061H95.9107C96.3614 37.3061 96.7377 37.2276 97.0396 37.0707C97.3454 36.9137 97.5769 36.6944 97.7338 36.4126C97.8908 36.1269 97.9693 35.7949 97.9693 35.4165C97.9693 35.0342 97.8908 34.7042 97.7338 34.4265C97.5769 34.1448 97.3454 33.9274 97.0396 33.7745C96.7337 33.6216 96.3574 33.5451 95.9107 33.5451H94.4377V43.5H91.4494ZM104.821 43.6569C104.23 43.6569 103.704 43.5583 103.246 43.3611C102.791 43.1599 102.431 42.8581 102.165 42.4556C101.903 42.0491 101.773 41.54 101.773 40.9283C101.773 40.4131 101.863 39.9784 102.044 39.6243C102.225 39.2701 102.475 38.9824 102.793 38.761C103.111 38.5396 103.477 38.3726 103.891 38.2599C104.306 38.1432 104.749 38.0647 105.22 38.0245C105.747 37.9762 106.171 37.9259 106.493 37.8736C106.815 37.8172 107.049 37.7387 107.194 37.6381C107.343 37.5335 107.417 37.3866 107.417 37.1974V37.1672C107.417 36.8574 107.31 36.6179 107.097 36.4489C106.884 36.2798 106.596 36.1953 106.234 36.1953C105.843 36.1953 105.53 36.2798 105.292 36.4489C105.055 36.6179 104.904 36.8513 104.839 37.1491L102.117 37.0525C102.197 36.4891 102.404 35.986 102.738 35.5433C103.076 35.0966 103.539 34.7464 104.127 34.4929C104.719 34.2353 105.429 34.1065 106.258 34.1065C106.85 34.1065 107.395 34.177 107.894 34.3178C108.393 34.4547 108.828 34.6559 109.198 34.9215C109.568 35.1831 109.854 35.5051 110.055 35.8874C110.26 36.2698 110.363 36.7064 110.363 37.1974V43.5H107.586V42.2081H107.514C107.349 42.522 107.137 42.7876 106.88 43.005C106.626 43.2223 106.326 43.3853 105.98 43.494C105.638 43.6026 105.252 43.6569 104.821 43.6569ZM105.733 41.7251C106.051 41.7251 106.336 41.6607 106.59 41.5319C106.848 41.4032 107.053 41.2261 107.206 41.0007C107.359 40.7713 107.435 40.5057 107.435 40.2038V39.3224C107.351 39.3667 107.248 39.4069 107.127 39.4432C107.011 39.4794 106.882 39.5136 106.741 39.5458C106.6 39.578 106.455 39.6062 106.306 39.6303C106.157 39.6545 106.014 39.6766 105.878 39.6967C105.6 39.741 105.362 39.8094 105.165 39.902C104.972 39.9945 104.823 40.1153 104.719 40.2642C104.618 40.4091 104.568 40.5821 104.568 40.7834C104.568 41.0892 104.676 41.3227 104.894 41.4837C105.115 41.6446 105.395 41.7251 105.733 41.7251ZM115.12 31.1364V43.5H112.168V31.1364H115.12Z" fill="#00A4EE"/>
</g>
<defs>
<filter id="filter0_d_1_50" x="6.28571" y="2.28571" width="51.4286" height="51.4286" filterUnits="userSpaceOnUse" color-interpolation-filters="sRGB">
<feFlood flood-opacity="0" result="BackgroundImageFix"/>
<feColorMatrix in="SourceAlpha" type="matrix" values="0 0 0 0 0 0 0 0 0 0 0 0 0 0 0 0 0 0 127 0" result="hardAlpha"/>
<feOffset/>
<feGaussianBlur stdDeviation="2.85714"/>
<feComposite in2="hardAlpha" operator="out"/>
<feColorMatrix type="matrix" values="0 0 0 0 0 0 0 0 0 0 0 0 0 0 0 0 0 0 0.25 0"/>
<feBlend mode="normal" in2="BackgroundImageFix" result="effect1_dropShadow_1_50"/>
<feBlend mode="normal" in="SourceGraphic" in2="effect1_dropShadow_1_50" result="shape"/>
</filter>
<filter id="filter1_d_1_50" x="54.4" y="3.9" width="135.2" height="48.6773" filterUnits="userSpaceOnUse" color-interpolation-filters="sRGB">
<feFlood flood-opacity="0" result="BackgroundImageFix"/>
<feColorMatrix in="SourceAlpha" type="matrix" values="0 0 0 0 0 0 0 0 0 0 0 0 0 0 0 0 0 0 127 0" result="hardAlpha"/>
<feOffset/>
<feGaussianBlur stdDeviation="2.8"/>
<feComposite in2="hardAlpha" operator="out"/>
<feColorMatrix type="matrix" values="0 0 0 0 0 0 0 0 0 0 0 0 0 0 0 0 0 0 0.25 0"/>
<feBlend mode="normal" in2="BackgroundImageFix" result="effect1_dropShadow_1_50"/>
<feBlend mode="normal" in="SourceGraphic" in2="effect1_dropShadow_1_50" result="shape"/>
</filter>
<linearGradient id="paint0_linear_1_50" x1="98" y1="0" x2="98" y2="56" gradientUnits="userSpaceOnUse">
<stop stop-color="#0E1B35"/>
<stop offset="1" stop-color="#0A1D25"/>
</linearGradient>
</defs>
</svg>
